# 3ds Max Wavefront OBJ Exporter v0.97b - (c)2007 guruware
# File Created: 24.12.2020 10:33:52

mtllib Arena_Pillar.mtl

#
# object Pillars
#

v  -449.4900 143.3800 216.5400
v  -452.5300 -4.3800 215.5300
v  -413.8300 -0.3500 207.6000
v  -410.8000 147.4100 208.6100
v  -426.9400 -1.2600 143.2000
v  -465.6300 -5.2900 151.1300
v  -462.6000 142.4700 152.1400
v  -423.9000 146.5000 144.2100
# 8 vertices

vn 0.1995 0.0138 0.9798
vn -0.1995 -0.0138 -0.9798
vn 0.9746 0.1015 -0.1998
# 3 vertex normals

vt 0.9679 0.0285 0.0000
vt 0.9667 0.9727 0.0000
vt 0.7143 0.9724 0.0000
vt 0.7155 0.0282 0.0000
vt 0.2965 0.9719 0.0000
vt 0.0442 0.9715 0.0000
vt 0.0454 0.0273 0.0000
vt 0.2978 0.0277 0.0000
# 8 texture coords

g Pillars
usemtl _Arena_Pillar01___Default
f 1/1/1 2/2/1 3/3/1 4/4/1 
f 5/5/2 6/6/2 7/7/2 8/8/2 
f 8/8/3 4/4/3 3/3/3 5/5/3 
# 3 polygons

#
# object Pillars_001
#

v  455.5000 155.9300 -177.6200
v  457.3700 8.9900 -172.5600
v  418.8300 14.8000 -164.9900
v  416.9600 161.7400 -170.0500
v  431.5600 15.1900 -100.5100
v  470.1000 9.3800 -108.0800
v  468.2300 156.3200 -113.1500
v  429.7000 162.1300 -105.5700
# 8 vertices

vn -0.1937 -0.0059 -0.9810
vn 0.1937 0.0059 0.9810
vn -0.9707 0.1464 0.1908
vn -0.9706 0.1464 0.1908
# 4 vertex normals

vt 0.0498 0.9777 0.0000
vt 0.0451 0.0380 0.0000
vt 0.2963 0.0368 0.0000
vt 0.3009 0.9765 0.0000
vt 0.7121 0.0348 0.0000
vt 0.9632 0.0335 0.0000
vt 0.9678 0.9732 0.0000
vt 0.7167 0.9745 0.0000
# 8 texture coords

g Pillars_001
usemtl _Arena_Pillar01___Default
f 9/9/4 10/10/4 11/11/4 12/12/4 
f 13/13/5 14/14/5 15/15/5 16/16/5 
f 16/16/6 12/12/7 11/11/6 13/13/7 
# 3 polygons

#
# object Pillars_002
#

v  95.8500 134.3400 -623.4900
v  93.3300 -13.1500 -617.1400
v  80.2100 -8.5400 -579.9600
v  82.7300 138.9600 -586.3100
v  142.2300 -7.0300 -558.2600
v  155.3500 -11.6500 -595.4500
v  157.8700 135.8500 -601.8000
v  144.7500 140.4600 -564.6100
# 8 vertices

vn -0.9437 -0.0229 -0.3301
vn 0.9437 0.0229 0.3301
vn -0.3305 0.1162 0.9366
# 3 vertex normals

vt 0.0425 0.9702 0.0000
vt 0.0374 0.0275 0.0000
vt 0.2894 0.0261 0.0000
vt 0.2945 0.9688 0.0000
vt 0.7065 0.0239 0.0000
vt 0.9584 0.0225 0.0000
vt 0.9636 0.9652 0.0000
vt 0.7116 0.9666 0.0000
# 8 texture coords

g Pillars_002
usemtl _Arena_Pillar01___Default
f 17/17/8 18/18/8 19/19/8 20/20/8 
f 21/21/9 22/22/9 23/23/9 24/24/9 
f 24/24/10 20/20/10 19/19/10 21/21/10 
# 3 polygons

#
# object Pillars_003
#

v  -456.4400 147.6200 -204.3700
v  -452.0900 -0.7400 -204.3100
v  -413.1600 1.2400 -196.7500
v  -417.5200 149.5900 -196.8100
v  -400.6600 1.8400 -261.2700
v  -439.5800 -0.1300 -268.8300
v  -443.9400 148.2300 -268.8900
v  -405.0100 150.2000 -261.3300
# 8 vertices

vn -0.1903 -0.0092 0.9817
vn 0.1903 0.0091 -0.9817
vn 0.1903 0.0092 -0.9817
vn 0.9804 0.0497 0.1905
vn 0.9804 0.0497 0.1904
# 5 vertex normals

vt 0.9672 0.0211 0.0000
vt 0.9767 0.9667 0.0000
vt 0.7240 0.9692 0.0000
vt 0.7145 0.0236 0.0000
vt 0.3056 0.9734 0.0000
vt 0.0528 0.9760 0.0000
vt 0.0433 0.0303 0.0000
vt 0.2961 0.0278 0.0000
# 8 texture coords

g Pillars_003
usemtl _Arena_Pillar01___Default
f 25/25/11 26/26/11 27/27/11 28/28/11 
f 29/29/12 30/30/13 31/31/12 32/32/12 
f 32/32/14 28/28/14 27/27/14 29/29/15 
# 3 polygons

