# 3ds Max Wavefront OBJ Exporter v0.97b - (c)2007 guruware
# File Created: 24.12.2020 10:35:09

mtllib Arena_Flag.mtl

#
# object Flags
#

v  -415.7300 188.0400 -11.1100
v  -415.7300 136.3400 -11.1100
v  -416.9900 137.2900 -40.0100
v  -416.9900 188.0400 -40.0100
v  -414.5600 188.0400 15.9900
v  -414.5600 137.2900 15.9900
v  -415.7700 48.4100 -12.0100
v  -416.9900 71.5900 -40.0100
v  -414.5600 71.5900 15.9900
v  -539.9300 192.3300 -33.0200
v  -538.7100 192.3300 -5.0200
v  -537.4900 192.3300 22.9800
# 12 vertices

vn 0.9991 0.0000 -0.0435
vn 0.0347 0.9994 -0.0015
# 2 vertex normals

vt 0.1531 0.5255 0.0000
vt 0.1474 0.3385 0.0000
vt 0.2521 0.3387 0.0000
vt 0.2577 0.5223 0.0000
vt 0.0550 0.5285 0.0000
vt 0.0494 0.3449 0.0000
vt 0.1409 0.0203 0.0000
vt 0.2449 0.1011 0.0000
vt 0.0421 0.1072 0.0000
vt 0.2653 0.9681 0.0000
vt 0.1640 0.9712 0.0000
vt 0.0626 0.9743 0.0000
# 12 texture coords

g Flags
usemtl _Arena_Flag01___Default
f 1/1/1 2/2/1 3/3/1 4/4/1 
f 1/1/1 5/5/1 6/6/1 2/2/1 
f 2/2/1 7/7/1 8/8/1 3/3/1 
f 2/2/1 6/6/1 9/9/1 7/7/1 
f 4/4/1 10/10/2 11/11/2 1/1/1 
f 1/1/1 11/11/2 12/12/2 5/5/1 
# 6 polygons

#
# object Flags_001
#

v  414.2400 188.7200 -11.5200
v  414.2400 137.0200 -11.5200
v  413.0500 137.9700 17.3800
v  413.0500 188.7200 17.3800
v  415.3500 188.7200 -38.6300
v  415.3500 137.9700 -38.6300
v  414.2000 49.0900 -10.6300
v  413.0500 72.2700 17.3800
v  415.3500 72.2700 -38.6300
v  539.1100 193.0100 17.6600
v  540.2600 193.0100 -10.3400
v  541.4000 193.0100 -38.3400
# 12 vertices

vn -0.9992 0.0000 -0.0410
vn -0.0340 0.9994 -0.0014
# 2 vertex normals

vt 0.3956 0.5236 0.0000
vt 0.3901 0.3389 0.0000
vt 0.4935 0.3392 0.0000
vt 0.4989 0.5205 0.0000
vt 0.2987 0.5265 0.0000
vt 0.2933 0.3452 0.0000
vt 0.3839 0.0247 0.0000
vt 0.4865 0.1045 0.0000
vt 0.2863 0.1105 0.0000
vt 0.4949 0.9713 0.0000
vt 0.3948 0.9743 0.0000
vt 0.2947 0.9773 0.0000
# 12 texture coords

g Flags_001
usemtl _Arena_Flag01___Default
f 13/13/3 14/14/3 15/15/3 16/16/3 
f 13/13/3 17/17/3 18/18/3 14/14/3 
f 14/14/3 19/19/3 20/20/3 15/15/3 
f 14/14/3 18/18/3 21/21/3 19/19/3 
f 16/16/3 22/22/4 23/23/4 13/13/3 
f 13/13/3 23/23/4 24/24/4 17/17/3 
# 6 polygons

#
# object Flags_002
#

v  283.9600 186.2800 -405.4800
v  283.9600 134.5800 -405.4800
v  301.5400 135.5200 -382.5100
v  301.5400 186.2800 -382.5100
v  267.4700 186.2800 -427.0200
v  267.4700 135.5200 -427.0200
v  284.5000 46.6500 -404.7700
v  301.5400 69.8200 -382.5100
v  267.4700 69.8200 -427.0200
v  406.7200 190.5600 -469.0500
v  389.6800 190.5600 -491.3100
v  372.6500 190.5600 -513.5600
# 12 vertices

vn -0.7941 0.0000 0.6077
vn -0.0250 0.9995 0.0191
# 2 vertex normals

vt 0.8466 0.5072 0.0000
vt 0.8397 0.3305 0.0000
vt 0.9387 0.3299 0.0000
vt 0.9454 0.5034 0.0000
vt 0.7539 0.5108 0.0000
vt 0.7471 0.3374 0.0000
vt 0.8311 0.0299 0.0000
vt 0.9299 0.1054 0.0000
vt 0.7384 0.1129 0.0000
vt 0.9472 0.9694 0.0000
vt 0.8514 0.9732 0.0000
vt 0.7556 0.9769 0.0000
# 12 texture coords

g Flags_002
usemtl _Arena_Flag01___Default
f 25/25/5 26/26/5 27/27/5 28/28/5 
f 25/25/5 29/29/5 30/30/5 26/26/5 
f 26/26/5 31/31/5 32/32/5 27/27/5 
f 26/26/5 30/30/5 33/33/5 31/31/5 
f 28/28/5 34/34/6 35/35/6 25/25/5 
f 25/25/5 35/35/6 36/36/6 29/29/5 
# 6 polygons

#
# object Flags_003
#

v  -296.6500 188.5100 -390.7900
v  -296.6500 136.8100 -390.7900
v  -279.7300 137.7500 -414.2400
v  -279.7300 188.5100 -414.2400
v  -312.5300 188.5100 -368.7900
v  -312.5300 137.7500 -368.7900
v  -296.1300 48.8800 -391.5200
v  -279.7300 72.0600 -414.2400
v  -312.5300 72.0600 -368.7900
v  -394.8100 192.7900 -487.7400
v  -411.2100 192.7900 -465.0100
v  -427.6100 192.7900 -442.2800
# 12 vertices

vn 0.8109 0.0000 0.5852
vn 0.0255 0.9995 0.0184
# 2 vertex normals

vt 0.6274 0.5079 0.0000
vt 0.6190 0.3316 0.0000
vt 0.7178 0.3300 0.0000
vt 0.7261 0.5032 0.0000
vt 0.5349 0.5124 0.0000
vt 0.5266 0.3392 0.0000
vt 0.6076 0.0314 0.0000
vt 0.7070 0.1059 0.0000
vt 0.5158 0.1151 0.0000
vt 0.7220 0.9698 0.0000
vt 0.6264 0.9744 0.0000
vt 0.5308 0.9789 0.0000
# 12 texture coords

g Flags_003
usemtl _Arena_Flag01___Default
f 37/37/7 38/38/7 39/39/7 40/40/7 
f 37/37/7 41/41/7 42/42/7 38/38/7 
f 38/38/7 43/43/7 44/44/7 39/39/7 
f 38/38/7 42/42/7 45/45/7 43/43/7 
f 40/40/7 46/46/8 47/47/8 37/37/7 
f 37/37/7 47/47/8 48/48/8 41/41/7 
# 6 polygons

