# 3ds Max Wavefront OBJ Exporter v0.97b - (c)2007 guruware
# File Created: 17.12.2020 16:13:42

mtllib Wall.mtl

#
# object node_id4
#

v  10.0762 17.0595 7.6705
v  10.0762 17.0595 0.3876
v  6.7157 17.0595 5.0627
v  -2.8645 17.0595 9.6358
v  -3.7849 17.0595 9.1648
v  6.7157 34.2893 5.0627
v  -6.6540 34.2893 -4.9714
v  -4.1242 34.2893 7.1398
v  11.7972 28.5406 7.3449
v  21.6509 28.5406 10.5101
v  23.6761 28.5406 8.4430
v  12.8953 28.5406 -4.5340
v  9.3554 28.5406 9.3735
v  24.7742 28.5406 -3.4359
v  10.8667 28.5406 -6.9758
v  23.6761 40.0478 8.4430
v  18.9612 45.0365 8.0071
v  11.7972 43.8117 7.3449
v  24.7742 43.1413 -3.4359
v  24.6467 45.4245 -2.0568
v  12.8953 42.1713 -4.5340
v  14.7370 44.1213 -4.3637
v  12.1788 45.9658 3.2165
v  26.0421 28.5406 7.2340
v  22.9608 33.9044 -5.8182
v  20.9784 33.9044 4.0824
v  22.9608 33.9044 1.9140
v  30.0295 33.9044 -5.8182
v  20.9784 33.9044 -7.9866
v  30.0295 33.9044 1.9140
v  32.0119 33.9044 -7.9866
v  32.0119 33.9044 4.0824
v  28.2806 51.2909 -3.9798
v  22.9608 48.7250 -5.8182
v  22.9608 50.8032 -1.4855
v  30.0295 49.3101 1.9140
v  28.8154 50.1385 1.9140
v  22.9608 50.1385 1.9140
v  29.4093 50.7664 -5.8182
v  30.0295 50.3433 -5.8182
v  -19.0966 46.4827 -8.5854
v  -17.4489 44.9527 -11.3501
v  -24.1754 40.4888 -11.3501
v  -1.7334 34.2893 8.3633
v  -16.2153 15.2925 8.4541
v  -16.2153 21.8601 8.4541
v  -16.2153 21.8601 1.8866
v  -16.2153 15.2925 1.8866
v  -7.2989 34.2893 -8.0585
v  0.5391 34.2893 -12.2630
v  -10.6610 29.6048 -6.2550
v  -7.4807 30.4249 5.8373
v  -7.0442 17.0595 7.4967
v  -6.8834 3.9638 8.1083
v  -3.6621 3.9638 9.7569
v  -10.6610 17.0595 -6.2550
v  20.9784 0.8090 -7.9866
v  32.0119 0.8090 -7.9866
v  -16.9620 46.0474 -10.5370
v  -10.6442 44.7589 -0.9892
v  -9.2350 44.4715 -2.2282
v  10.0762 3.9638 7.6705
v  -8.1615 44.2526 -8.1720
v  -7.0997 37.9750 -11.3501
v  16.3943 46.9391 -2.3854
v  13.8518 46.9391 2.0012
v  19.2703 46.9391 4.3486
v  22.7498 46.9391 -1.4179
v  -10.6610 3.9638 -6.2550
v  10.0762 34.2893 0.3876
v  6.7924 2.3350 -7.9866
v  6.7924 39.3500 -7.9866
v  13.3600 39.3500 -7.9866
v  13.3600 2.3350 -7.9866
v  13.3600 39.3500 4.0824
v  13.3600 2.3350 4.0824
v  6.7924 39.3500 4.0824
v  6.7924 2.3350 4.0824
v  25.9663 0.4356 8.0542
v  27.2159 3.9517 -5.4644
v  27.2159 28.5406 -5.4644
v  10.0762 17.0595 -6.2550
v  10.0762 34.2893 -6.2550
v  9.3554 0.4356 9.3734
v  10.8667 0.4356 -6.9758
v  23.9613 28.5406 8.7864
v  22.5617 0.4356 10.5942
v  24.0385 26.8240 10.7308
v  -7.0997 42.2948 -1.4859
v  -7.0997 43.2445 -8.3390
v  24.9930 26.8240 10.0187
v  -24.1754 45.4925 -6.0771
v  -24.1754 42.9580 2.7707
v  -12.3336 43.5915 2.7707
v  -7.0997 39.4654 2.7707
v  -7.0997 0.3355 2.7707
v  -7.0997 -0.7682 -11.3501
v  -24.1754 -0.7682 -11.3501
v  25.8433 26.8240 9.3843
v  -3.6332 2.1402 14.1093
v  -3.6332 17.0474 14.1093
v  -19.6418 17.0474 10.4616
v  -19.6418 2.1402 10.4616
v  32.0119 2.3350 4.0824
v  20.9784 2.3350 4.0824
v  -1.3205 3.9638 -12.2630
v  -0.9074 17.0595 -12.2630
v  -24.1754 0.3355 2.7707
v  10.0762 3.9638 -6.2550
v  -15.9941 17.0474 -5.5470
v  -15.9941 2.7915 -5.5470
v  0.0145 17.0474 -1.8993
v  0.0145 2.7915 -1.8993
v  -9.6477 15.2925 1.8866
v  -9.6477 21.8601 1.8866
v  -9.6477 21.8601 8.4541
v  -9.6477 15.2925 8.4541
# 117 vertices

vn 0.1012 0.7387 0.6664
vn 0.9318 0.2040 0.3002
vn 0.3861 0.7769 0.4974
vn -0.1132 0.6509 0.7507
vn -0.2782 0.1875 0.9420
vn 0.4667 0.6485 0.6014
vn -0.4291 0.8988 0.0896
vn -0.4496 0.7316 0.5125
vn -0.3280 0.9045 0.2725
vn 0.0396 0.7052 0.7079
vn 0.2725 0.9045 0.3280
vn -0.2725 0.9045 -0.3280
vn -0.6280 0.5773 0.5218
vn 0.3280 0.9045 -0.2725
vn -0.5218 0.5773 -0.6280
vn 0.6393 0.1959 0.7436
vn 0.1608 0.5872 0.7933
vn -0.6965 0.3671 0.6165
vn 0.7244 0.1905 -0.6625
vn 0.7604 0.5709 -0.3097
vn -0.6398 0.1992 -0.7423
vn -0.2737 0.4632 -0.8429
vn -0.7645 0.6389 0.0853
vn 0.6824 0.7048 0.1936
vn -0.3015 0.9045 -0.3015
vn -0.5774 0.5774 0.5774
vn -0.3015 0.9045 0.3015
vn 0.3015 0.9045 -0.3015
vn -0.5774 0.5774 -0.5774
vn 0.3015 0.9045 0.3015
vn 0.5774 0.5774 -0.5774
vn 0.5774 0.5774 0.5774
vn 0.1211 0.9875 -0.1005
vn -0.6565 0.3396 -0.6736
vn -0.6824 0.7304 -0.0288
vn 0.6940 0.3354 0.6371
vn 0.2286 0.6736 0.7029
vn -0.5882 0.5141 0.6243
vn 0.2343 0.7241 -0.6487
vn 0.7004 0.4010 -0.5904
vn -0.1874 0.9573 -0.2201
vn -0.0877 0.4343 -0.8965
vn -0.6889 0.1870 -0.7003
vn -0.0149 0.6435 0.7653
vn -0.7071 0.0000 0.7071
vn -0.7071 0.7071 -0.0000
vn -1.0000 0.0000 -0.0000
vn -0.5514 0.6996 -0.4543
vn 0.0344 0.6121 -0.7901
vn -0.9146 0.2406 -0.3249
vn -0.7992 0.2804 0.5316
vn -0.7730 0.0373 0.6333
vn -0.6068 -0.6181 0.4996
vn -0.1324 -0.6368 0.7596
vn -0.9292 0.0028 -0.3696
vn -0.5710 -0.6158 -0.5429
vn 0.5710 -0.6158 -0.5429
vn 0.0488 0.8409 -0.5390
vn 0.2834 0.9128 0.2942
vn 0.4734 0.8601 0.1901
vn 0.1012 -0.7387 0.6664
vn 0.4696 0.8040 -0.3649
vn 0.6928 0.1172 -0.7116
vn -0.1837 0.8485 -0.4963
vn -0.3866 0.9222 -0.0122
vn 0.2339 0.9140 0.3315
vn 0.4007 0.8796 -0.2563
vn -0.7486 -0.5957 -0.2912
vn 0.7280 0.6442 0.2345
vn -0.5774 -0.5774 -0.5774
vn 0.5774 -0.5774 -0.5774
vn 0.5774 -0.5774 0.5774
vn -0.5774 -0.5774 0.5774
vn 0.6896 -0.6497 0.3199
vn 0.6919 -0.4289 -0.5808
vn 0.6280 0.5774 -0.5218
vn 0.7504 -0.0096 -0.6609
vn 0.6918 0.6128 -0.3818
vn -0.6280 -0.5774 0.5218
vn -0.4892 -0.5971 -0.6357
vn 0.2381 0.9173 0.3192
vn 0.1989 -0.6419 0.7405
vn 0.3318 0.2780 0.9015
vn 0.8725 0.4419 0.2086
vn 0.8036 0.4670 -0.3690
vn 0.5603 0.3495 0.7510
vn -0.6970 0.7136 -0.0709
vn -0.6052 0.4685 0.6436
vn 0.1451 0.6185 0.7723
vn 0.6945 0.2088 0.6886
vn 0.5816 -0.5524 0.5972
vn 0.5734 -0.6015 -0.5563
vn -0.5734 -0.6015 -0.5563
vn 0.7989 0.2727 0.5360
vn 0.4350 -0.5897 0.6804
vn 0.4347 0.5774 0.6912
vn -0.6912 0.5774 0.4347
vn -0.6868 -0.5897 0.4248
vn 0.5843 -0.5367 0.6088
vn -0.5843 -0.5367 0.6088
vn -0.0386 -0.6104 -0.7911
vn -0.0303 -0.0024 -0.9995
vn -0.5816 -0.5524 0.5972
vn 0.2861 -0.7963 -0.5330
vn -0.4347 0.5774 -0.6912
vn -0.4344 -0.5648 -0.7017
vn 0.6912 0.5774 -0.4347
vn 0.6955 -0.5648 -0.4442
vn 1.0000 0.0000 -0.0000
vn 0.7071 0.7071 -0.0000
vn 0.7071 0.0000 0.7071
# 111 vertex normals

vt 0.9444 0.1897 0.0000
vt 0.9473 0.1942 0.0000
vt 0.9433 0.1926 0.0000
vt 0.9355 0.1936 0.0000
vt 0.9351 0.1942 0.0000
vt 0.9342 0.1990 0.0000
vt 0.9227 0.2035 0.0000
vt 0.9269 0.1953 0.0000
vt 0.9431 0.1688 0.0000
vt 0.9510 0.1670 0.0000
vt 0.9524 0.1688 0.0000
vt 0.9431 0.1781 0.0000
vt 0.9413 0.1670 0.0000
vt 0.9524 0.1781 0.0000
vt 0.9413 0.1799 0.0000
vt 0.8359 0.7011 0.0000
vt 0.8320 0.6974 0.0000
vt 0.8330 0.6917 0.0000
vt 0.8335 0.6731 0.0000
vt 0.8317 0.6720 0.0000
vt 0.8359 0.6637 0.0000
vt 0.8343 0.6824 0.0000
vt 0.8327 0.6810 0.0000
vt 0.8313 0.6885 0.0000
vt 0.9542 0.1699 0.0000
vt 0.9344 0.1823 0.0000
vt 0.9359 0.1896 0.0000
vt 0.9344 0.1880 0.0000
vt 0.9291 0.1823 0.0000
vt 0.9359 0.1807 0.0000
vt 0.9291 0.1880 0.0000
vt 0.9277 0.1807 0.0000
vt 0.9277 0.1896 0.0000
vt 0.9076 0.1862 0.0000
vt 0.9097 0.1902 0.0000
vt 0.9060 0.1902 0.0000
vt 0.2064 0.6578 0.0000
vt 0.2058 0.6569 0.0000
vt 0.2058 0.6526 0.0000
vt 0.2069 0.6688 0.0000
vt 0.2054 0.6640 0.0000
vt 0.2057 0.6636 0.0000
vt 0.2058 0.6746 0.0000
vt 0.2053 0.6720 0.0000
vt 0.9482 0.2110 0.0000
vt 0.9502 0.2143 0.0000
vt 0.9415 0.2171 0.0000
vt 0.2179 0.6578 0.0000
vt 0.2179 0.6636 0.0000
vt 0.1887 0.6752 0.0000
vt 0.1877 0.6623 0.0000
vt 0.1961 0.6627 0.0000
vt 0.1954 0.6755 0.0000
vt 0.0773 0.6680 0.0000
vt 0.0773 0.6591 0.0000
vt 0.0862 0.6591 0.0000
vt 0.0862 0.6680 0.0000
vt 0.9216 0.2056 0.0000
vt 0.9263 0.2102 0.0000
vt 0.9180 0.2028 0.0000
vt 0.9230 0.1950 0.0000
vt 0.1850 0.6623 0.0000
vt 0.1853 0.6526 0.0000
vt 0.1880 0.6526 0.0000
vt 0.1840 0.6722 0.0000
vt 0.1747 0.6719 0.0000
vt 0.1745 0.6625 0.0000
vt 0.1818 0.6761 0.0000
vt 0.1818 0.7007 0.0000
vt 0.1736 0.7007 0.0000
vt 0.1736 0.6761 0.0000
vt 0.2179 0.6526 0.0000
vt 0.9506 0.2127 0.0000
vt 0.9569 0.2029 0.0000
vt 0.9585 0.2043 0.0000
vt 0.1983 0.6527 0.0000
vt 0.1982 0.6624 0.0000
vt 0.1885 0.6623 0.0000
vt 0.9596 0.2105 0.0000
vt 0.9641 0.2171 0.0000
vt 0.1867 0.6751 0.0000
vt 0.1720 0.6754 0.0000
vt 0.1654 0.6756 0.0000
vt 0.9586 0.1761 0.0000
vt 0.9566 0.1731 0.0000
vt 0.9607 0.1713 0.0000
vt 0.9628 0.1757 0.0000
vt 0.1743 0.6528 0.0000
vt 0.9289 0.1950 0.0000
vt 0.9357 0.2030 0.0000
vt 0.9656 0.1787 0.0000
vt 0.9569 0.1788 0.0000
vt 0.0522 0.6591 0.0000
vt 0.0522 0.7090 0.0000
vt 0.0434 0.7090 0.0000
vt 0.0434 0.6591 0.0000
vt 0.0271 0.7090 0.0000
vt 0.0271 0.6591 0.0000
vt 0.0773 0.7090 0.0000
vt 0.0685 0.7090 0.0000
vt 0.0685 0.6591 0.0000
vt 0.7773 0.6845 0.0000
vt 0.7844 0.6637 0.0000
vt 0.7934 0.6701 0.0000
vt 0.7866 0.6881 0.0000
vt 0.1997 0.6758 0.0000
vt 0.2004 0.6630 0.0000
vt 0.2053 0.6633 0.0000
vt 0.2046 0.6760 0.0000
vt 0.8184 0.6765 0.0000
vt 0.8107 0.6971 0.0000
vt 0.7987 0.6926 0.0000
vt 0.8064 0.6720 0.0000
vt 0.9526 0.1685 0.0000
vt 0.9542 0.1799 0.0000
vt 0.8281 0.6802 0.0000
vt 0.8219 0.6999 0.0000
vt 0.8197 0.7005 0.0000
vt 0.9549 0.1720 0.0000
vt 0.9546 0.1681 0.0000
vt 0.9607 0.1680 0.0000
vt 0.9648 0.1764 0.0000
vt 0.9617 0.2030 0.0000
vt 0.9612 0.2108 0.0000
vt 0.8449 0.7011 0.0000
vt 0.8449 0.6917 0.0000
vt 0.9532 0.1666 0.0000
vt 0.9539 0.1672 0.0000
vt 0.9663 0.1666 0.0000
vt 0.8449 0.6824 0.0000
vt 0.8449 0.6731 0.0000
vt 0.9424 0.2088 0.0000
vt 0.9417 0.1986 0.0000
vt 0.9553 0.1984 0.0000
vt 0.2807 0.6902 0.0000
vt 0.2807 0.6478 0.0000
vt 0.2960 0.6466 0.0000
vt 0.2960 0.6886 0.0000
vt 0.3145 0.6466 0.0000
vt 0.3145 0.6913 0.0000
vt 0.8236 0.7005 0.0000
vt 0.8228 0.7002 0.0000
vt 0.8313 0.6813 0.0000
vt 0.2179 0.6688 0.0000
vt 0.7762 0.6827 0.0000
vt 0.9032 0.1847 0.0000
vt 0.9090 0.1847 0.0000
vt 0.9033 0.1858 0.0000
vt 0.2201 0.6761 0.0000
vt 0.2201 0.6872 0.0000
vt 0.2079 0.6872 0.0000
vt 0.2079 0.6761 0.0000
vt 0.1646 0.6772 0.0000
vt 0.1646 0.7007 0.0000
vt 0.1564 0.7007 0.0000
vt 0.1564 0.6772 0.0000
vt 0.8974 0.2092 0.0000
vt 0.8974 0.2004 0.0000
vt 0.9136 0.2004 0.0000
vt 0.9136 0.2092 0.0000
vt 0.9090 0.1852 0.0000
vt 0.9344 0.2078 0.0000
vt 0.1660 0.6530 0.0000
vt 0.1660 0.6627 0.0000
vt 0.8449 0.6637 0.0000
vt 0.9629 0.1972 0.0000
vt 0.3298 0.6478 0.0000
vt 0.3482 0.6478 0.0000
vt 0.3482 0.6902 0.0000
vt 0.3298 0.6940 0.0000
vt 0.3426 0.6947 0.0000
vt 0.9546 0.1795 0.0000
vt 0.2179 0.6746 0.0000
vt 0.3202 0.6967 0.0000
vt 0.3072 0.6961 0.0000
vt 0.1570 0.6758 0.0000
vt 0.1567 0.6630 0.0000
vt 0.9034 0.1902 0.0000
vt 0.2927 0.6943 0.0000
vt 0.2853 0.6933 0.0000
vt 0.1564 0.6532 0.0000
vt 0.9545 0.1678 0.0000
vt 0.2085 0.7147 0.0000
vt 0.2085 0.7036 0.0000
vt 0.2207 0.7036 0.0000
vt 0.2207 0.7142 0.0000
vt 0.1908 0.7184 0.0000
vt 0.1908 0.7078 0.0000
vt 0.2030 0.7078 0.0000
vt 0.2030 0.7184 0.0000
vt 0.2207 0.6930 0.0000
vt 0.2085 0.6925 0.0000
vt 0.1907 0.6772 0.0000
vt 0.1907 0.7007 0.0000
vt 0.9276 0.1846 0.0000
vt 0.9154 0.1846 0.0000
vt 0.9154 0.1724 0.0000
vt 0.9276 0.1724 0.0000
vt 0.0774 0.7090 0.0000
vt 0.0774 0.7178 0.0000
vt 0.0685 0.7178 0.0000
vt 0.0597 0.7178 0.0000
vt 0.0597 0.7090 0.0000
vt 0.9269 0.1555 0.0000
vt 0.9358 0.1555 0.0000
vt 0.9358 0.1643 0.0000
vt 0.9269 0.1643 0.0000
vt 0.3033 0.7152 0.0000
vt 0.3033 0.6967 0.0000
vt 0.3186 0.6967 0.0000
vt 0.3186 0.7152 0.0000
vt 0.1686 0.7007 0.0000
vt 0.1686 0.7129 0.0000
vt 0.1564 0.7129 0.0000
vt 0.7762 0.7101 0.0000
vt 0.7848 0.7005 0.0000
vt 0.7872 0.7170 0.0000
vt 0.7839 0.7170 0.0000
vt 0.7948 0.7091 0.0000
vt 0.1899 0.7007 0.0000
vt 0.1899 0.7089 0.0000
vt 0.1809 0.7089 0.0000
vt 0.1809 0.7007 0.0000
vt 0.0434 0.7178 0.0000
vt 0.0271 0.7178 0.0000
vt 0.2078 0.6877 0.0000
vt 0.1950 0.6774 0.0000
vt 0.1973 0.6761 0.0000
vt 0.2078 0.6795 0.0000
vt 0.1995 0.6925 0.0000
vt 0.1908 0.6869 0.0000
# 231 texture coords

g node_id4
usemtl 01___Default
s 1
f 1/1/1 2/2/2 3/3/3 
f 4/4/4 3/3/3 5/5/5 
f 6/6/6 7/7/7 8/8/8 
f 9/9/9 10/10/10 11/11/11 
f 12/12/12 13/13/13 9/9/9 
f 14/14/14 15/15/15 12/12/12 
f 16/16/16 17/17/17 18/18/18 
f 19/19/19 20/20/20 16/21/16 
f 21/22/21 22/23/22 19/19/19 
f 18/18/18 23/24/23 21/22/21 
f 11/11/11 24/25/24 14/14/14 
f 25/26/25 26/27/26 27/28/27 
f 28/29/28 29/30/29 25/26/25 
f 30/31/30 31/32/31 28/29/28 
f 30/31/30 26/27/26 32/33/32 
f 33/34/33 34/35/34 35/36/35 
f 36/37/36 37/38/37 38/39/38 
f 34/40/34 39/41/39 40/42/40 
f 38/43/38 35/44/35 34/40/34 
f 41/45/41 42/46/42 43/47/43 
f 36/37/36 30/48/30 28/49/28 
f 28/49/28 40/42/40 36/37/36 
f 44/50/44 5/51/5 3/52/3 
f 3/52/3 6/53/6 44/50/44 
f 45/54/45 46/55/26 47/56/46 
f 47/56/46 48/57/47 45/54/45 
f 4/4/4 1/1/1 3/3/3 
f 49/58/48 7/7/7 50/59/49 
f 51/60/50 52/61/51 8/8/8 
f 8/8/8 7/7/7 51/60/50 
f 5/51/5 53/62/52 54/63/53 
f 54/63/53 55/64/54 5/51/5 
f 52/65/51 51/66/50 56/67/55 
f 56/67/55 53/62/52 52/65/51 
f 57/68/56 29/69/29 31/70/31 
f 31/70/31 58/71/57 57/68/56 
f 30/48/30 36/37/36 38/39/38 
f 38/39/38 27/72/27 30/48/30 
f 59/73/58 41/45/41 60/74/59 
f 60/74/59 61/75/60 59/73/58 
f 62/76/61 1/77/1 4/78/4 
f 4/78/4 55/64/54 62/76/61 
f 63/79/62 64/80/63 42/46/42 
f 42/46/42 59/73/58 63/79/62 
f 55/64/54 4/78/4 5/51/5 
f 44/50/44 8/81/8 52/65/51 
f 49/82/48 50/83/49 51/66/50 
f 65/84/64 66/85/65 67/86/66 
f 67/86/66 68/87/67 65/84/64 
f 69/88/68 54/63/53 53/62/52 
f 53/62/52 56/67/55 69/88/68 
f 8/8/8 44/89/44 6/6/6 
f 6/6/6 70/90/69 7/7/7 
f 19/91/19 22/92/22 65/84/64 
f 65/84/64 68/87/67 19/91/19 
f 49/58/48 51/60/50 7/7/7 
f 71/93/70 72/94/29 73/95/31 
f 73/95/31 74/96/71 71/93/70 
f 74/96/71 73/95/31 75/97/32 
f 75/97/32 76/98/72 74/96/71 
f 76/55/72 75/99/32 77/100/26 
f 77/100/26 78/101/73 76/55/72 
f 24/102/24 79/103/74 80/104/75 
f 80/104/75 81/105/76 24/102/24 
f 78/101/73 77/100/26 72/94/29 
f 72/94/29 71/93/70 78/101/73 
f 70/106/69 2/107/2 82/108/77 
f 82/108/77 83/109/78 70/106/69 
f 84/110/79 13/111/13 15/112/15 
f 15/112/15 85/113/80 84/110/79 
f 86/114/81 11/11/11 10/10/10 
f 9/9/9 13/13/13 10/10/10 
f 12/12/12 15/15/15 13/13/13 
f 14/14/14 81/115/76 15/15/15 
f 87/116/82 88/117/83 10/118/10 
f 67/86/66 23/119/23 18/120/18 
f 18/120/18 17/121/17 67/86/66 
f 68/87/67 67/86/66 20/122/20 
f 61/75/60 89/123/84 90/124/85 
f 90/124/85 63/79/62 61/75/60 
f 11/125/11 16/16/16 18/18/18 
f 18/18/18 9/126/9 11/125/11 
f 86/114/81 10/10/10 88/127/83 
f 88/127/83 91/128/86 86/114/81 
f 66/85/65 65/84/64 22/92/22 
f 67/86/66 17/121/17 16/129/16 
f 16/129/16 20/122/20 67/86/66 
f 20/122/20 19/91/19 68/87/67 
f 12/130/12 21/22/21 19/19/19 
f 19/19/19 14/131/14 12/130/12 
f 67/86/66 66/85/65 23/119/23 
f 41/45/41 92/132/87 93/133/88 
f 93/133/88 94/134/89 41/45/41 
f 95/135/90 96/136/91 97/137/92 
f 97/137/92 64/138/63 95/135/90 
f 98/139/93 43/140/43 64/138/63 
f 64/138/63 97/137/92 98/139/93 
f 99/141/94 91/142/86 79/143/74 
f 25/144/25 34/40/34 40/42/40 
f 40/42/40 28/49/28 25/144/25 
f 84/110/79 87/116/82 10/118/10 
f 10/118/10 13/111/13 84/110/79 
f 24/102/24 99/145/94 79/103/74 
f 36/146/36 40/147/40 33/34/33 
f 33/34/33 37/148/37 36/146/36 
f 52/65/51 53/62/52 5/51/5 
f 5/51/5 44/50/44 52/65/51 
f 81/115/76 14/14/14 24/25/24 
f 11/11/11 86/114/81 24/25/24 
f 6/53/6 3/52/3 2/107/2 
f 2/107/2 70/106/69 6/53/6 
f 100/149/95 101/150/96 102/151/97 
f 102/151/97 103/152/98 100/149/95 
f 104/153/99 32/154/32 26/155/26 
f 26/155/26 105/156/100 104/153/99 
f 77/157/26 75/158/32 73/159/31 
f 73/159/31 72/160/29 77/157/26 
f 25/26/25 29/30/29 26/27/26 
f 28/29/28 31/32/31 29/30/29 
f 30/31/30 32/33/32 31/32/31 
f 30/31/30 27/28/27 26/27/26 
f 33/34/33 39/161/39 34/35/34 
f 39/161/39 33/34/33 40/147/40 
f 83/162/78 50/59/49 7/7/7 
f 7/7/7 70/90/69 83/162/78 
f 9/126/9 18/18/18 21/22/21 
f 21/22/21 12/130/12 9/126/9 
f 106/163/101 69/88/68 56/67/55 
f 56/67/55 107/164/102 106/163/101 
f 14/131/14 19/19/19 16/21/16 
f 16/21/16 11/165/11 14/131/14 
f 60/74/59 94/134/89 95/166/90 
f 95/166/90 89/123/84 60/74/59 
f 108/167/103 96/168/91 95/169/90 
f 95/169/90 93/170/88 108/167/103 
f 95/169/90 94/171/89 93/170/88 
f 87/116/82 79/143/74 91/142/86 
f 91/142/86 88/117/83 87/116/82 
f 66/85/65 22/92/22 21/172/21 
f 21/172/21 23/119/23 66/85/65 
f 63/79/62 90/124/85 64/80/63 
f 27/173/27 38/43/38 34/40/34 
f 34/40/34 25/144/25 27/173/27 
f 92/174/87 43/140/43 93/170/88 
f 43/140/43 42/175/42 64/138/63 
f 50/83/49 83/176/78 82/177/77 
f 82/177/77 107/164/102 50/83/49 
f 43/47/43 92/132/87 41/45/41 
f 41/45/41 59/73/58 42/46/42 
f 35/36/35 38/178/38 37/148/37 
f 37/148/37 33/34/33 35/36/35 
f 64/138/63 90/179/85 89/180/84 
f 89/180/84 95/135/90 64/138/63 
f 109/181/104 106/163/101 107/164/102 
f 107/164/102 82/177/77 109/181/104 
f 51/66/50 50/83/49 107/164/102 
f 107/164/102 56/67/55 51/66/50 
f 61/75/60 60/74/59 89/123/84 
f 43/140/43 98/139/93 108/167/103 
f 108/167/103 93/170/88 43/140/43 
f 63/79/62 59/73/58 61/75/60 
f 86/114/81 91/128/86 99/182/94 
f 99/182/94 24/25/24 86/114/81 
f 60/74/59 41/45/41 94/134/89 
f 58/71/57 31/70/31 32/154/32 
f 32/154/32 104/153/99 58/71/57 
f 103/183/98 102/184/97 110/185/105 
f 110/185/105 111/186/106 103/183/98 
f 111/187/106 110/188/105 112/189/107 
f 112/189/107 113/190/108 111/187/106 
f 113/191/108 112/185/107 101/184/96 
f 101/184/96 100/192/95 113/191/108 
f 105/193/100 26/194/26 29/69/29 
f 29/69/29 57/68/56 105/193/100 
f 102/195/97 101/196/96 112/197/107 
f 112/197/107 110/198/105 102/195/97 
f 85/113/80 15/112/15 81/105/76 
f 81/105/76 80/104/75 85/113/80 
f 114/199/109 115/200/110 116/201/32 
f 116/201/32 117/100/111 114/199/109 
f 117/100/111 116/201/32 46/202/26 
f 46/202/26 45/203/45 117/100/111 
f 46/204/26 116/205/32 115/206/110 
f 115/206/110 47/207/46 46/204/26 
f 98/208/93 97/209/92 96/210/91 
f 96/210/91 108/211/103 98/208/93 
f 111/212/106 113/213/108 100/214/95 
f 100/214/95 103/155/98 111/212/106 
f 84/215/79 85/216/80 79/217/74 
f 79/217/74 87/218/82 84/215/79 
f 80/219/75 79/217/74 85/216/80 
f 57/220/56 58/221/57 104/222/99 
f 104/222/99 105/223/100 57/220/56 
f 71/95/70 74/224/71 76/225/72 
f 76/225/72 78/97/73 71/95/70 
f 106/226/101 55/227/54 54/228/53 
f 54/228/53 69/229/68 106/226/101 
f 55/227/54 106/226/101 109/230/104 
f 109/230/104 62/231/61 55/227/54 
# 0 polygons - 199 triangles

